<?xml version="1.0" standalone="no"?><!DOCTYPE svg PUBLIC "-//W3C//DTD SVG 1.1//EN" "http://www.w3.org/Graphics/SVG/1.1/DTD/svg11.dtd"><svg class="icon" width="200px" height="200.00px" viewBox="0 0 1024 1024" version="1.1" xmlns="http://www.w3.org/2000/svg"><path d="M492.8 81.066667a32 32 0 0 1 38.4 0l426.666667 320a32 32 0 0 1-38.4 51.2l-34.133334-25.6v213.333333c0 106.154667-9.984 191.402667-54.741333 248.96C795.306667 934.314667 746.666667 938.666667 672 938.666667v-170.666667a160 160 0 0 0-320 0v170.666667c-74.666667 0-123.306667-4.352-158.592-49.706667C148.650667 831.402667 138.666667 746.154667 138.666667 640v-213.333333l-34.133334 25.642666a32 32 0 0 1-38.4-51.2l426.666667-320z" fill="#212121" /></svg>