<?xml version="1.0" standalone="no"?><!DOCTYPE svg PUBLIC "-//W3C//DTD SVG 1.1//EN" "http://www.w3.org/Graphics/SVG/1.1/DTD/svg11.dtd"><svg class="icon" width="200px" height="200.00px" viewBox="0 0 1024 1024" version="1.1" xmlns="http://www.w3.org/2000/svg"><path d="M66.817 653.674l156.311 75.035L512.166 868.7l278.736-135.046 166.695-79.84a82.85 82.85 0 0 1-38.774 109.997L548.288 943.264a82.85 82.85 0 0 1-72.245 0L105.508 763.81a82.85 82.85 0 0 1-38.691-110.136z m890.421-173.378a82.85 82.85 0 0 1-38.415 110.743L548.261 770.493a82.85 82.85 0 0 1-72.246 0L105.508 591.04A82.85 82.85 0 0 1 65.16 484.66l410.386 193.567 36.62 17.73L882.7 516.502l-0.194-0.083 74.731-36.095zM548.288 89.71l370.508 179.427a82.85 82.85 0 0 1 0 149.13L548.288 597.724a82.85 82.85 0 0 1-72.245 0L105.508 418.269a82.85 82.85 0 0 1 0-149.131l370.535-179.4a82.85 82.85 0 0 1 72.245 0z" /></svg>