<?xml version="1.0" standalone="no"?><!DOCTYPE svg PUBLIC "-//W3C//DTD SVG 1.1//EN" "http://www.w3.org/Graphics/SVG/1.1/DTD/svg11.dtd"><svg class="icon" width="200px" height="200.00px" viewBox="0 0 1024 1024" version="1.1" xmlns="http://www.w3.org/2000/svg"><path d="M741.205333 263.68c0 44.032-34.133333 115.712-98.816 207.36-27.989333 40.96-57.344 76.629333-76.458666 99.84A25.6 25.6 0 0 1 546.133333 580.266667h-1.024c17.92-22.186667 40.618667-51.2 63.146667-83.456 64.682667-91.648 98.816-163.328 98.816-207.36A195.413333 195.413333 0 0 0 512 93.866667a193.024 193.024 0 0 0-98.986667 27.136 194.901333 194.901333 0 0 1 328.192 142.677333z" fill="#333333" opacity=".3" /><path d="M963.413333 898.048l-69.290666-263.338667a34.133333 34.133333 0 0 0-1.536-5.632l-28.330667-107.178666a25.6 25.6 0 0 0-24.746667-19.114667H603.477333c1.536-2.218667 3.242667-4.437333 4.778667-6.826667 64.682667-91.648 98.816-163.328 98.816-207.36A195.584 195.584 0 0 0 512 93.866667 195.584 195.584 0 0 0 316.928 290.133333c0 44.202667 34.133333 115.882667 98.816 207.36l5.802667 8.192H190.634667a25.6 25.6 0 0 0-24.576 18.602667L60.757333 897.536A25.429333 25.429333 0 0 0 85.333333 930.133333h853.333334a25.429333 25.429333 0 0 0 24.746666-32.085333zM368.128 290.133333a143.872 143.872 0 1 1 287.744 0c0 11.946667-6.485333 60.245333-89.429333 177.834667-19.114667 26.965333-37.376 51.2-54.442667 71.68-16.042667-20.309333-35.328-45.397333-54.442667-72.533333C375.466667 349.696 368.128 301.397333 368.128 290.133333z m-158.037333 266.581334h249.514666c12.458667 15.872 23.722667 29.866667 32.597334 40.789333a25.941333 25.941333 0 0 0 19.797333 8.362667 25.6 25.6 0 0 0 19.797333-8.533334c9.216-11.093333 20.650667-25.429333 34.133334-41.813333h254.634666l15.701334 57.514667H620.544a25.6 25.6 0 0 0 0 51.2h228.352l23.722667 90.112H513.365333a25.6 25.6 0 0 0-25.6 25.258666l-1.536 92.672a22.528 22.528 0 0 0 1.024 6.656h-132.096a19.114667 19.114667 0 0 0 1.365334-4.437333l20.309333-147.456a26.453333 26.453333 0 0 0-6.144-20.309333 25.770667 25.770667 0 0 0-19.285333-8.874667L170.666667 698.197333zM156.672 745.813333a25.941333 25.941333 0 0 0 12.970667 3.584h152.405333l-16.213333 118.442667a24.917333 24.917333 0 0 0 1.194666 11.264H119.466667z m379.904 133.12a22.869333 22.869333 0 0 0 0-5.973333l1.194667-67.413333h330.24a25.429333 25.429333 0 0 0 15.701333-5.461334L904.533333 879.274667z" fill="#333333" /><path d="M477.866667 358.4a75.434667 75.434667 0 0 0 34.133333 7.850667 79.189333 79.189333 0 0 0 34.133333-7.850667 76.8 76.8 0 0 0-4.608-139.946667 77.994667 77.994667 0 0 0-58.538666 0 76.970667 76.970667 0 0 0-47.786667 71.68 76.117333 76.117333 0 0 0 42.666667 68.266667z m24.064-92.672a26.112 26.112 0 0 1 19.456 0 25.6 25.6 0 0 1 1.536 46.762667 26.112 26.112 0 0 1-22.528 0A25.429333 25.429333 0 0 1 486.4 290.133333a25.770667 25.770667 0 0 1 15.872-23.722666z" fill="#333333" /></svg>