<?xml version="1.0" standalone="no"?><!DOCTYPE svg PUBLIC "-//W3C//DTD SVG 1.1//EN" "http://www.w3.org/Graphics/SVG/1.1/DTD/svg11.dtd"><svg class="icon" width="200px" height="200.00px" viewBox="0 0 1024 1024" version="1.1" xmlns="http://www.w3.org/2000/svg"><path d="M682.666667 53.333333c166.997333 0 288 121.002667 288 288v256c0 166.997333-121.002667 288-288 288h-71.509334c-10.112 10.794667-23.466667 25.6-37.504 40.533334-8.789333 9.386667-17.792 18.730667-25.386666 25.856a133.930667 133.930667 0 0 1-11.818667 9.984 56.576 56.576 0 0 1-7.68 4.736 37.12 37.12 0 0 1-16.768 4.224 37.717333 37.717333 0 0 1-16.384-3.925334 56.021333 56.021333 0 0 1-7.978667-4.778666 126.464 126.464 0 0 1-12.202666-10.154667 513.578667 513.578667 0 0 1-25.6-26.026667c-13.952-15.061333-27.093333-29.696-37.034667-40.448H341.333333c-166.997333 0-288-121.002667-288-288V341.333333c0-166.997333 121.002667-288 288-288h341.333334zM298.666667 426.666667a42.666667 42.666667 0 1 0 0 85.333333 42.666667 42.666667 0 0 0 0-85.333333z m213.333333 0a42.666667 42.666667 0 1 0 0 85.333333 42.666667 42.666667 0 0 0 0-85.333333z m213.333333 0a42.666667 42.666667 0 1 0 0 85.333333 42.666667 42.666667 0 0 0 0-85.333333z" fill="#212121" /></svg>