<?xml version="1.0" standalone="no"?><!DOCTYPE svg PUBLIC "-//W3C//DTD SVG 1.1//EN" "http://www.w3.org/Graphics/SVG/1.1/DTD/svg11.dtd"><svg class="icon" width="200px" height="200.00px" viewBox="0 0 1024 1024" version="1.1" xmlns="http://www.w3.org/2000/svg"><path d="M405.76 544.128c6.826667 0.128 13.226667 0.426667 18.773333 1.066667 10.965333 1.237333 26.154667 4.266667 38.101334 16.213333 11.946667 11.904 14.933333 27.093333 16.170666 38.058667 1.237333 11.178667 1.194667 25.301333 1.194667 40.533333v170.666667l-0.64 14.506666c-2.858667 33.408-15.786667 63.146667-38.058667 85.461334-25.472 25.472-60.714667 38.698667-99.968 38.698666H256c-102.997333 0-181.333333-78.336-181.333333-181.333333v-85.333333c0-39.253333 13.226667-74.496 38.698666-99.968S174.08 544 213.333333 544h170.666667l21.76 0.128zM810.666667 544c39.253333 0 74.496 13.226667 99.968 38.698667s38.698667 60.714667 38.698666 99.968v85.333333l-0.213333 9.6c-4.693333 98.218667-81.322667 171.733333-181.12 171.733333h-85.333333c-39.253333 0-74.496-13.226667-99.968-38.698666S544 849.92 544 810.666667v-170.666667l0.128-21.76c0.128-6.826667 0.426667-13.226667 1.066667-18.773333 1.237333-10.965333 4.266667-26.154667 16.213333-38.101334 11.904-11.946667 27.093333-14.933333 38.058667-16.170666 11.178667-1.237333 25.301333-1.194667 40.533333-1.194667h170.666667z m-469.333334-469.333333c39.253333 0 74.496 13.226667 99.968 38.698666S480 174.08 480 213.333333v170.666667l-0.128 21.76c-0.128 6.826667-0.426667 13.226667-1.066667 18.773333-1.237333 10.965333-4.266667 26.154667-16.213333 38.101334-11.904 11.946667-27.093333 14.933333-38.058667 16.170666-11.178667 1.237333-25.301333 1.194667-40.533333 1.194667H213.333333c-39.253333 0-74.496-13.226667-99.968-38.698667S74.666667 380.586667 74.666667 341.333333V256c0-102.997333 78.336-181.333333 181.333333-181.333333h85.333333z m426.666667 0c102.997333 0 181.333333 78.336 181.333333 181.333333v85.333333l-0.64 14.506667c-2.858667 33.408-15.786667 63.146667-38.058666 85.461333-25.472 25.472-60.714667 38.698667-99.968 38.698667h-170.666667c-15.232 0-29.354667 0-40.533333-1.194667-10.965333-1.237333-26.154667-4.266667-38.101334-16.213333-11.946667-11.904-14.933333-27.093333-16.170666-38.058667a215.68 215.68 0 0 1-1.066667-18.773333L544 384V213.333333c0-39.253333 13.226667-74.496 38.698667-99.968S643.413333 74.666667 682.666667 74.666667h85.333333z" fill="#212121" /></svg>