<?xml version="1.0" standalone="no"?><!DOCTYPE svg PUBLIC "-//W3C//DTD SVG 1.1//EN" "http://www.w3.org/Graphics/SVG/1.1/DTD/svg11.dtd"><svg class="icon" width="200px" height="200.00px" viewBox="0 0 1024 1024" version="1.1" xmlns="http://www.w3.org/2000/svg"><path d="M913.066667 901.688889h-79.644445c-59.733333 0-110.933333-48.355556-110.933333-110.933333V125.155556c0-59.733333 48.355556-110.933333 110.933333-110.933334h79.644445C972.8 14.222222 1024 62.577778 1024 125.155556v668.444444c0 59.733333-48.355556 108.088889-110.933333 108.088889z m79.644444-776.533333c0-45.511111-31.288889-79.644444-79.644444-79.644445h-79.644445c-56.888889 0-79.644444 54.044444-79.644444 79.644445v668.444444c0 42.666667 34.133333 79.644444 76.8 79.644444h82.488889c36.977778 0 79.644444-28.444444 79.644444-79.644444V125.155556zM864.711111 113.777778H816.355556l2.844444 96.711111c0 8.533333-5.688889 17.066667-14.222222 17.066667s-11.377778-8.533333-11.377778-17.066667V113.777778c0-31.288889 25.6-31.288889 34.133333-31.288889h36.977778c8.533333 0 17.066667 8.533333 14.222222 17.066667 0 8.533333-5.688889 14.222222-14.222222 14.222222z m-48.355555 130.844444c2.844444 2.844444 5.688889 5.688889 5.688888 11.377778 0 8.533333-5.688889 14.222222-14.222222 14.222222s-14.222222-5.688889-14.222222-14.222222c0-2.844444 2.844444-8.533333 5.688889-11.377778 2.844444-5.688889 11.377778-5.688889 17.066667 0z m-253.155556 657.066667H483.555556c-59.733333 0-110.933333-48.355556-110.933334-110.933333V295.822222c0-59.733333 48.355556-110.933333 110.933334-110.933333h79.644444c59.733333 0 110.933333 48.355556 110.933333 110.933333v494.933334c0 62.577778-51.2 110.933333-110.933333 110.933333z m79.644444-605.866667c0-45.511111-31.288889-79.644444-79.644444-79.644444H483.555556c-56.888889 0-79.644444 54.044444-79.644445 79.644444v494.933334c0 42.666667 34.133333 79.644444 76.8 79.644444h82.488889c36.977778 0 79.644444-28.444444 79.644444-79.644444V295.822222zM199.111111 901.688889H116.622222C56.888889 901.688889 5.688889 853.333333 5.688889 790.755556V472.177778c0-59.733333 48.355556-110.933333 110.933333-110.933334H199.111111c59.733333 0 110.933333 48.355556 110.933333 110.933334v321.422222c-2.844444 59.733333-51.2 108.088889-110.933333 108.088889z m79.644445-429.511111c0-45.511111-31.288889-79.644444-79.644445-79.644445H116.622222c-56.888889 0-79.644444 54.044444-79.644444 79.644445v321.422222c0 42.666667 34.133333 79.644444 76.8 79.644444h85.333333c36.977778 0 79.644444-28.444444 79.644445-79.644444V472.177778z m722.488888 506.311111c8.533333 0 14.222222 5.688889 14.222223 14.222222s-5.688889 14.222222-14.222223 14.222222H14.222222c-8.533333 2.844444-14.222222-2.844444-14.222222-11.377777s5.688889-14.222222 14.222222-14.222223l987.022222-2.844444z" fill="#666666" /></svg>