<?xml version="1.0" standalone="no"?><!DOCTYPE svg PUBLIC "-//W3C//DTD SVG 1.1//EN" "http://www.w3.org/Graphics/SVG/1.1/DTD/svg11.dtd"><svg class="icon" width="200px" height="200.00px" viewBox="0 0 1024 1024" version="1.1" xmlns="http://www.w3.org/2000/svg"><path d="M832 64h128a64 64 0 0 1 64 64v832a64 64 0 0 1-64 64H64a64 64 0 0 1-64-64V128a64 64 0 0 1 64-64h128V32a32 32 0 0 1 64 0V64h512V32a32 32 0 1 1 64 0V64z m0 64v32a32 32 0 1 1-64 0V128H256v32a32 32 0 0 1-64 0V128H64v832h896V128h-128z m-371.84 528.832l244.736-250.24a31.616 31.616 0 0 1 44.992-0.192l0.256 0.256a32 32 0 0 1 0.256 44.992L487.04 720.832a32 32 0 0 1-3.328 3.904l-0.256 0.256a32 32 0 0 1-44.992 0.192L278.656 568.32a31.68 31.68 0 0 1-0.256-45.056l0.256-0.256a32 32 0 0 1 44.992-0.192l136.512 133.952z" fill="#666666" /></svg>