<?xml version="1.0" standalone="no"?><!DOCTYPE svg PUBLIC "-//W3C//DTD SVG 1.1//EN" "http://www.w3.org/Graphics/SVG/1.1/DTD/svg11.dtd"><svg class="icon" width="200px" height="200.00px" viewBox="0 0 1024 1024" version="1.1" xmlns="http://www.w3.org/2000/svg"><path d="M679.8 115.5l110.6 110.6-213.3 207.2-180.7-135.2c-0.5-0.4-1.2-0.5-1.7-0.8-1.9-1.3-4-2.1-6.1-2.9-1.9-0.6-3.5-1.5-5.5-1.9-2.1-0.4-4.1-0.3-6.3-0.2-2.1-0.1-4-0.2-6.1 0.2-1.9 0.4-3.6 1.3-5.4 1.9-2.2 0.8-4.2 1.6-6.3 3-0.5 0.3-1.1 0.3-1.5 0.7l-278.3 210c-14.4 10.7-22.2 38.2-11.4 52.6 6.5 8.7 21.7 18.4 32.5 17.8 6.2-0.3 12.4-2.4 17.7-6.3l258.8-195.6 183.8 137.5c1.7 1.4 3.6 2 5.6 2.8 1.2 0.5 2.3 1.3 3.6 1.7 3.9 1.4 8 2.1 12.1 1.9 4.2-0.2 8.4-1.4 12.3-3.4 1.3-0.6 2.4-1.7 3.6-2.5 1.8-1.2 3.7-2 5.3-3.6l245.1-239L960 383.8V115.5H679.8z m-548 759c0 17.5 14.1 31.6 31.6 31.6H195c17.5 0 31.6-14.1 31.6-31.6V651.8l-94.9 70.7v152z m472-201.1c-1.2 0.8-2.3 1.9-3.6 2.5-3.9 1.9-8.1 3.2-12.3 3.4-4.1 0.2-8.2-0.5-12.1-1.9-0.4-0.1-0.8-0.4-1.2-0.6v197.7c0 17.5 14.1 31.6 31.6 31.6h31.6c17.5 0 31.6-14.1 31.6-31.6v-265L609 669.8c-1.5 1.6-3.4 2.5-5.2 3.6zM796 874.5c0 17.5 14.1 31.6 31.6 31.6h31.6c17.5 0 31.6-14.1 31.6-31.6V388.2l-94.9 94.9 0.1 391.4z m-442.8-317v317.1c0 17.5 14.1 31.6 31.6 31.6h31.6c17.5 0 31.6-14.1 31.6-31.6V584.1l-65.2-48.8-29.6 22.2z m0 0" fill="#040000" /></svg>