<?xml version="1.0" standalone="no"?><!DOCTYPE svg PUBLIC "-//W3C//DTD SVG 1.1//EN" "http://www.w3.org/Graphics/SVG/1.1/DTD/svg11.dtd"><svg class="icon" width="200px" height="200.00px" viewBox="0 0 1024 1024" version="1.1" xmlns="http://www.w3.org/2000/svg"><path d="M832 565.333333c41.002667 0 71.808 15.914667 91.648 40.704 18.901333 23.637333 25.685333 52.565333 25.685333 76.629334v85.333333c0 99.754667-75.221333 181.333333-160 181.333333h-554.666666c-84.778667 0-160-81.578667-160-181.333333v-85.333333c0-24.064 6.784-52.992 25.685333-76.629334 19.84-24.789333 50.645333-40.704 91.648-40.704 77.184 0 120.874667 12.928 149.376 37.546667 13.824 11.946667 22.186667 25.216 28.330667 35.114667 6.570667 10.666667 10.197333 16.64 15.573333 22.058666 32.213333 32.170667 61.525333 33.28 126.72 33.28 65.194667 0 94.506667-1.109333 126.72-33.28 5.205333-5.248 8.704-11.093333 15.274667-21.76 6.144-9.941333 14.506667-23.168 28.373333-35.114666 28.586667-24.746667 72.362667-37.845333 149.632-37.845334zM640 74.666667a202.666667 202.666667 0 0 1 202.666667 202.666666v213.333334a32 32 0 0 1-23.722667 30.933333l-6.101333 0.981333h-0.128l-0.64 0.085334-2.389334 0.170666-9.301333 0.810667c-7.936 0.725333-19.072 1.877333-31.573333 3.498667-25.6 3.285333-55.082667 8.277333-76.117334 15.232-27.946667 9.216-43.093333 28.16-68.266666 54.357333-24.533333 25.514667-56.448 53.930667-112.426667 53.930667-55.978667 0-87.893333-28.416-112.426667-53.930667-25.173333-26.154667-40.32-45.141333-68.266666-54.357333-21.034667-6.954667-50.474667-11.946667-76.117334-15.232a888.746667 888.746667 0 0 0-40.874666-4.309334l-2.389334-0.170666-0.64-0.085334H211.2a32 32 0 0 1-29.824-31.914666v-213.333334A202.666667 202.666667 0 0 1 384 74.666667h256z m-298.666667 341.333333a32 32 0 0 0 0 64h213.333334a32 32 0 0 0 0-64H341.333333z m0-149.333333a32 32 0 0 0 0 64h341.333334a32 32 0 0 0 0-64H341.333333z" fill="#212121" /></svg>